<svg width="17" height="4" viewBox="0 0 17 4" fill="none" xmlns="http://www.w3.org/2000/svg">
<path d="M4.46974 2.18238C4.46974 2.64509 4.28593 3.08884 3.95875 3.41603C3.63157 3.74321 3.18781 3.92702 2.72511 3.92702C2.2624 3.92702 1.81864 3.74321 1.49146 3.41603C1.16428 3.08884 0.980469 2.64509 0.980469 2.18238C0.980469 1.71967 1.16428 1.27592 1.49146 0.948737C1.81864 0.621554 2.2624 0.437744 2.72511 0.437744C3.18781 0.437744 3.63157 0.621554 3.95875 0.948737C4.28593 1.27592 4.46974 1.71967 4.46974 2.18238ZM10.576 2.18238C10.576 2.64509 10.3922 3.08884 10.065 3.41603C9.7378 3.74321 9.29404 3.92702 8.83134 3.92702C8.36863 3.92702 7.92488 3.74321 7.59769 3.41603C7.27051 3.08884 7.0867 2.64509 7.0867 2.18238C7.0867 1.71967 7.27051 1.27592 7.59769 0.948737C7.92488 0.621554 8.36863 0.437744 8.83134 0.437744C9.29404 0.437744 9.7378 0.621554 10.065 0.948737C10.3922 1.27592 10.576 1.71967 10.576 2.18238ZM16.6822 2.18238C16.6822 2.64509 16.4984 3.08884 16.1712 3.41603C15.844 3.74321 15.4003 3.92702 14.9376 3.92702C14.4749 3.92702 14.0311 3.74321 13.7039 3.41603C13.3767 3.08884 13.1929 2.64509 13.1929 2.18238C13.1929 1.71967 13.3767 1.27592 13.7039 0.948737C14.0311 0.621554 14.4749 0.437744 14.9376 0.437744C15.4003 0.437744 15.844 0.621554 16.1712 0.948737C16.4984 1.27592 16.6822 1.71967 16.6822 2.18238Z" fill="#F0E749"/>
</svg>
