<svg width="22" height="23" viewBox="0 0 22 23" fill="none" xmlns="http://www.w3.org/2000/svg">
<path fill-rule="evenodd" clip-rule="evenodd" d="M4.00741 3.2998L14.6394 13.9318L14.869 14.1614L16.9597 16.2521V16.2521L18.2639 17.5563L19.3338 18.6262L18.0588 19.9012L10.121 11.9633L10.121 18.8984L5.44151 15.2869H2.01758V8.07442H5.43627L5.88157 7.72396L2.73241 4.5748L4.00741 3.2998ZM17.2862 4.48373C20.1489 7.68026 20.7726 12.1489 19.1574 15.8998L17.765 14.5073C18.7737 11.5067 18.1453 8.0849 15.8795 5.609L17.2862 4.48373ZM13.72 7.33668C14.9298 8.6858 15.4762 10.412 15.3592 12.1016L13.2785 10.0209C13.0747 9.47514 12.7651 8.95931 12.3498 8.50442L12.3117 8.4633L13.72 7.33668ZM10.121 4.38809L10.121 6.86345L8.73566 5.47816L10.121 4.38809Z" fill="white"/>
</svg>
