<svg width="33" height="37" viewBox="0 0 33 37" fill="none" xmlns="http://www.w3.org/2000/svg">
<path d="M27.3806 36.9587C25.878 36.9587 24.6008 36.4328 23.549 35.3809C22.4972 34.3291 21.9713 33.0519 21.9713 31.5493C21.9713 31.369 22.0164 30.9483 22.1065 30.2872L9.43968 22.8944C8.95885 23.3452 8.40289 23.6986 7.77181 23.9546C7.14072 24.2107 6.46455 24.3381 5.74331 24.3369C4.24072 24.3369 2.96352 23.811 1.9117 22.7592C0.859891 21.7074 0.333984 20.4302 0.333984 18.9276C0.333984 17.425 0.859891 16.1478 1.9117 15.096C2.96352 14.0442 4.24072 13.5182 5.74331 13.5182C6.46455 13.5182 7.14072 13.6463 7.77181 13.9023C8.40289 14.1583 8.95885 14.5112 9.43968 14.9607L22.1065 7.56799C22.0464 7.35762 22.0092 7.15508 21.9947 6.96034C21.9803 6.7656 21.9725 6.54743 21.9713 6.30581C21.9713 4.80322 22.4972 3.52602 23.549 2.4742C24.6008 1.42239 25.878 0.896484 27.3806 0.896484C28.8832 0.896484 30.1604 1.42239 31.2122 2.4742C32.264 3.52602 32.7899 4.80322 32.7899 6.30581C32.7899 7.8084 32.264 9.0856 31.2122 10.1374C30.1604 11.1892 28.8832 11.7151 27.3806 11.7151C26.6594 11.7151 25.9832 11.5871 25.3521 11.3311C24.721 11.075 24.1651 10.7222 23.6842 10.2726L11.0174 17.6654C11.0775 17.8758 11.1154 18.0789 11.131 18.2748C11.1466 18.4708 11.1538 18.6884 11.1526 18.9276C11.1514 19.1668 11.1442 19.385 11.131 19.5821C11.1178 19.7792 11.0799 19.9818 11.0174 20.1897L23.6842 27.5825C24.1651 27.1317 24.721 26.7789 25.3521 26.5241C25.9832 26.2692 26.6594 26.1412 27.3806 26.14C28.8832 26.14 30.1604 26.6659 31.2122 27.7177C32.264 28.7695 32.7899 30.0467 32.7899 31.5493C32.7899 33.0519 32.264 34.3291 31.2122 35.3809C30.1604 36.4328 28.8832 36.9587 27.3806 36.9587Z" fill="white"/>
</svg>
