<svg width="22" height="23" viewBox="0 0 22 23" fill="none" xmlns="http://www.w3.org/2000/svg">
<g clip-path="url(#clip0_531_3446)">
<path d="M1.24717 15.425L1.22949 7.41699L7.20455 7.41699L11.2174 3.40416L11.2351 19.4378L7.22222 15.425L1.24717 15.425ZM13.1796 20.1449L13.1796 18.0943C14.6763 17.6583 15.8843 16.8217 16.8035 15.5848C17.7228 14.3478 18.1824 12.951 18.1824 11.3945C18.1824 9.83789 17.7228 8.44159 16.8035 7.20556C15.8843 5.96954 14.6763 5.13256 13.1796 4.69463L13.1796 2.64402C15.242 3.10364 16.9273 4.14686 18.2354 5.77367C19.5436 7.40049 20.1976 9.27409 20.1976 11.3945C20.1976 13.5148 19.5436 15.3889 18.2354 17.0167C16.9273 18.6444 15.242 19.6872 13.1796 20.1449ZM13.1796 15.973L13.1796 13.5688C13.4742 13.2742 13.7158 12.9444 13.9044 12.5796C14.0929 12.2147 14.1872 11.8315 14.1872 11.4298C14.1872 11.0056 14.096 10.6079 13.9136 10.2369C13.7311 9.86594 13.4865 9.527 13.1796 9.22011L13.1796 6.81595C14.0517 7.28735 14.7706 7.92375 15.3363 8.72514C15.902 9.52652 16.1848 10.4222 16.1848 11.4121C16.1848 12.4021 15.902 13.2921 15.3363 14.0822C14.7706 14.8723 14.0517 15.5025 13.1796 15.973Z" fill="white"/>
</g>
<defs>
<clipPath id="clip0_531_3446">
<rect width="21.6373" height="21.6373" fill="white" transform="translate(0.214844 0.782227)"/>
</clipPath>
</defs>
</svg>
