<svg viewBox="0 0 152 46" fill="none" xmlns="http://www.w3.org/2000/svg">
<path d="M148.056 42.8645L148.055 42.866L145.698 45.4586H1.3186V6.8093L3.93619 3.95374L6.53838 1.35156H150.681V40.0009L148.056 42.8645Z" fill="#3EBBE2" stroke="#F0E749" stroke-width="1.00243"/>
<path d="M43.4482 23.5707C43.4535 23.6072 43.4587 23.6436 43.4639 23.6801C43.4691 23.7113 43.4717 23.7452 43.4717 23.7816C43.4717 24.2973 43.404 24.7947 43.2686 25.2738C43.1383 25.7478 42.9508 26.1931 42.7061 26.6098C42.4613 27.0264 42.1696 27.404 41.8311 27.7426C41.4925 28.0811 41.1149 28.3728 40.6982 28.6176C40.2816 28.8624 39.8337 29.0525 39.3545 29.1879C38.8805 29.3181 38.3857 29.3832 37.8701 29.3832C37.3545 29.3832 36.8571 29.3181 36.3779 29.1879C35.904 29.0525 35.4587 28.8624 35.042 28.6176C34.6253 28.3728 34.2477 28.0811 33.9092 27.7426C33.5706 27.404 33.279 27.0264 33.0342 26.6098C32.7894 26.1931 32.5993 25.7478 32.4639 25.2738C32.3337 24.7947 32.2686 24.2973 32.2686 23.7816C32.2686 23.266 32.3337 22.7712 32.4639 22.2973C32.5993 21.8181 32.7894 21.3702 33.0342 20.9535C33.279 20.5369 33.5706 20.1593 33.9092 19.8207C34.2477 19.4822 34.6253 19.1905 35.042 18.9457C35.4587 18.7009 35.904 18.5134 36.3779 18.3832C36.8571 18.2478 37.3545 18.1801 37.8701 18.1801C38.6566 18.1801 39.391 18.3285 40.0732 18.6254C40.7555 18.9223 41.3519 19.3311 41.8623 19.852L41.667 20.0238L40.4014 21.1254C40.068 20.8077 39.6852 20.5577 39.2529 20.3754C38.8258 20.1931 38.3649 20.102 37.8701 20.102C37.3649 20.102 36.8883 20.1983 36.4404 20.391C35.9925 20.5837 35.6019 20.8468 35.2686 21.1801C34.9352 21.5134 34.6722 21.904 34.4795 22.352C34.2868 22.7947 34.1904 23.2712 34.1904 23.7816C34.1904 24.2869 34.2868 24.7634 34.4795 25.2113C34.6722 25.6593 34.9352 26.0499 35.2686 26.3832C35.6019 26.7165 35.9925 26.9796 36.4404 27.1723C36.8883 27.365 37.3649 27.4613 37.8701 27.4613C38.2191 27.4613 38.5524 27.4145 38.8701 27.3207C39.193 27.2218 39.4925 27.0863 39.7686 26.9145C40.0498 26.7426 40.2998 26.5369 40.5186 26.2973C40.7425 26.0577 40.9326 25.7947 41.0889 25.5082H37.8701V24.7504V23.5707H42.4482H43.4482ZM49.667 18.1801L49.7217 18.3363L48.6279 21.1566L47.1123 25.0082H50.1357L49.4092 23.1879L50.5029 20.3676L53.9951 29.3832H51.7451L50.917 27.0863H46.3311L45.3936 29.3832H43.2061L47.5264 18.1801H49.667ZM66.5342 18.1801L68.4092 29.3832H66.3857L65.1826 22.2973L62.8389 29.3832H60.9639L58.5654 22.2973L57.3701 29.3832H55.2842L57.2139 18.1801H59.292L61.9014 26.0004L64.5029 18.1801H66.5342ZM76.3701 18.1801V20.266H71.7295V22.766H76.3701V24.7973H71.7295V27.2973H76.3701V29.3832H69.6436V18.1801H76.3701ZM91.6357 18.1801V29.3832H89.5967L84.7529 22.0395V29.3832H82.6748V18.1801H84.7061L89.4951 25.5785V18.1801H91.6357ZM98.5576 27.4457C99.0316 27.4457 99.4691 27.3572 99.8701 27.1801C100.276 27.003 100.651 26.7426 100.995 26.3988C101.688 25.7218 102.034 24.8598 102.034 23.8129C102.034 22.8077 101.688 21.9431 100.995 21.2191C100.328 20.5212 99.4977 20.1723 98.5029 20.1723C97.4977 20.1723 96.6696 20.5212 96.0186 21.2191C95.3519 21.891 95.0186 22.7556 95.0186 23.8129C95.0186 25.0004 95.4508 25.9457 96.3154 26.6488C96.9665 27.1801 97.7139 27.4457 98.5576 27.4457ZM98.5576 29.3832C96.9691 29.3832 95.6383 28.8363 94.5654 27.7426C93.5029 26.6072 92.9717 25.2973 92.9717 23.8129C92.9717 22.7608 93.2217 21.8129 93.7217 20.9691C94.2008 20.115 94.8779 19.4353 95.7529 18.9301C96.6227 18.4301 97.5576 18.1801 98.5576 18.1801C100.047 18.1801 101.339 18.727 102.433 19.8207C103.537 20.9353 104.089 22.266 104.089 23.8129C104.089 25.3962 103.555 26.7218 102.487 27.7895C101.409 28.852 100.099 29.3832 98.5576 29.3832ZM117.706 18.1801L115.144 29.3832H113.097L111.011 22.1566L108.964 29.3832H106.979L104.409 18.1801H106.503L108.128 25.352L110.175 18.1801H111.894L113.94 25.352L115.612 18.1801H117.706ZM119.112 18.0395H121.144V25.9535H119.112V18.0395ZM119.214 27.227C119.469 26.9874 119.774 26.8676 120.128 26.8676C120.482 26.8676 120.787 26.9874 121.042 27.227C121.276 27.477 121.394 27.7816 121.394 28.141C121.394 28.3129 121.36 28.4744 121.292 28.6254C121.224 28.7764 121.131 28.9119 121.011 29.0316C120.896 29.1462 120.763 29.2374 120.612 29.3051C120.461 29.3728 120.3 29.4066 120.128 29.4066C119.774 29.4066 119.469 29.2712 119.214 29.0004C118.979 28.7816 118.862 28.4952 118.862 28.141C118.862 27.7816 118.979 27.477 119.214 27.227Z" fill="white"/>
</svg>
