<svg viewBox="0 0 152 46" fill="none" xmlns="http://www.w3.org/2000/svg">
<path d="M148.056 42.1151L148.055 42.1166L145.698 44.7093H1.3186V6.05994L3.93619 3.20439L6.53838 0.602199H150.681V39.2515L148.056 42.1151Z" fill="#F205D8" stroke="#F0E749" stroke-width="1.00243"/>
<path d="M43.4482 22.8214C43.4535 22.8579 43.4587 22.8944 43.4639 22.9308C43.4691 22.9621 43.4717 22.9959 43.4717 23.0324C43.4717 23.548 43.404 24.0454 43.2686 24.5246C43.1383 24.9985 42.9508 25.4438 42.7061 25.8605C42.4613 26.2772 42.1696 26.6548 41.8311 26.9933C41.4925 27.3319 41.1149 27.6235 40.6982 27.8683C40.2816 28.1131 39.8337 28.3032 39.3545 28.4386C38.8805 28.5688 38.3857 28.6339 37.8701 28.6339C37.3545 28.6339 36.8571 28.5688 36.3779 28.4386C35.904 28.3032 35.4587 28.1131 35.042 27.8683C34.6253 27.6235 34.2477 27.3319 33.9092 26.9933C33.5706 26.6548 33.279 26.2772 33.0342 25.8605C32.7894 25.4438 32.5993 24.9985 32.4639 24.5246C32.3337 24.0454 32.2686 23.548 32.2686 23.0324C32.2686 22.5168 32.3337 22.022 32.4639 21.548C32.5993 21.0688 32.7894 20.6209 33.0342 20.2043C33.279 19.7876 33.5706 19.41 33.9092 19.0714C34.2477 18.7329 34.6253 18.4412 35.042 18.1964C35.4587 17.9516 35.904 17.7641 36.3779 17.6339C36.8571 17.4985 37.3545 17.4308 37.8701 17.4308C38.6566 17.4308 39.391 17.5793 40.0732 17.8761C40.7555 18.173 41.3519 18.5819 41.8623 19.1027L41.667 19.2746L40.4014 20.3761C40.068 20.0584 39.6852 19.8084 39.2529 19.6261C38.8258 19.4438 38.3649 19.3527 37.8701 19.3527C37.3649 19.3527 36.8883 19.449 36.4404 19.6418C35.9925 19.8345 35.6019 20.0975 35.2686 20.4308C34.9352 20.7641 34.6722 21.1548 34.4795 21.6027C34.2868 22.0454 34.1904 22.522 34.1904 23.0324C34.1904 23.5376 34.2868 24.0141 34.4795 24.4621C34.6722 24.91 34.9352 25.3006 35.2686 25.6339C35.6019 25.9673 35.9925 26.2303 36.4404 26.423C36.8883 26.6157 37.3649 26.7121 37.8701 26.7121C38.2191 26.7121 38.5524 26.6652 38.8701 26.5714C39.193 26.4725 39.4925 26.3371 39.7686 26.1652C40.0498 25.9933 40.2998 25.7876 40.5186 25.548C40.7425 25.3084 40.9326 25.0454 41.0889 24.7589H37.8701V24.0011V22.8214H42.4482H43.4482ZM49.667 17.4308L49.7217 17.5871L48.6279 20.4074L47.1123 24.2589H50.1357L49.4092 22.4386L50.5029 19.6183L53.9951 28.6339H51.7451L50.917 26.3371H46.3311L45.3936 28.6339H43.2061L47.5264 17.4308H49.667ZM55.2842 17.4308H57.3701V28.6339H55.2842V17.4308ZM67.8389 17.4308V28.6339H65.7998L60.9561 21.2902V28.6339H58.8779V17.4308H60.9092L65.6982 24.8293V17.4308H67.8389ZM82.8232 17.4308V28.6339H80.7842L75.9404 21.2902V28.6339H73.8623V17.4308H75.8936L80.6826 24.8293V17.4308H82.8232ZM89.7451 26.6964C90.2191 26.6964 90.6566 26.6079 91.0576 26.4308C91.4639 26.2537 91.8389 25.9933 92.1826 25.6496C92.8753 24.9725 93.2217 24.1105 93.2217 23.0636C93.2217 22.0584 92.8753 21.1938 92.1826 20.4699C91.516 19.772 90.6852 19.423 89.6904 19.423C88.6852 19.423 87.8571 19.772 87.2061 20.4699C86.5394 21.1418 86.2061 22.0063 86.2061 23.0636C86.2061 24.2511 86.6383 25.1964 87.5029 25.8996C88.154 26.4308 88.9014 26.6964 89.7451 26.6964ZM89.7451 28.6339C88.1566 28.6339 86.8258 28.0871 85.7529 26.9933C84.6904 25.8579 84.1592 24.548 84.1592 23.0636C84.1592 22.0115 84.4092 21.0636 84.9092 20.2199C85.3883 19.3657 86.0654 18.686 86.9404 18.1808C87.8102 17.6808 88.7451 17.4308 89.7451 17.4308C91.2347 17.4308 92.5264 17.9777 93.6201 19.0714C94.7243 20.186 95.2764 21.5168 95.2764 23.0636C95.2764 24.647 94.7425 25.9725 93.6748 27.0402C92.5967 28.1027 91.2868 28.6339 89.7451 28.6339ZM108.894 17.4308L106.331 28.6339H104.284L102.198 21.4074L100.151 28.6339H98.167L95.5967 17.4308H97.6904L99.3154 24.6027L101.362 17.4308H103.081L105.128 24.6027L106.8 17.4308H108.894ZM110.3 17.2902H112.331V25.2043H110.3V17.2902ZM110.401 26.4777C110.657 26.2381 110.961 26.1183 111.315 26.1183C111.67 26.1183 111.974 26.2381 112.229 26.4777C112.464 26.7277 112.581 27.0324 112.581 27.3918C112.581 27.5636 112.547 27.7251 112.479 27.8761C112.412 28.0272 112.318 28.1626 112.198 28.2824C112.084 28.397 111.951 28.4881 111.8 28.5558C111.649 28.6235 111.487 28.6574 111.315 28.6574C110.961 28.6574 110.657 28.522 110.401 28.2511C110.167 28.0324 110.05 27.7459 110.05 27.3918C110.05 27.0324 110.167 26.7277 110.401 26.4777Z" fill="white"/>
</svg>
